<svg height="512pt" viewBox="0 -11 512 512" width="512pt" xmlns="http://www.w3.org/2000/svg"><path d="m245 0c-43.480469 0-84.308594 11.34375-119.710938 31.207031l196.816407 445.734375-.394531.792969c97.734374-32.199219 168.289062-124.21875 168.289062-232.734375 0-135.308594-109.691406-245-245-245zm0 0" fill="#27a3ff"/><path d="m314.617188 402.875h-117.339844l-2.152344 41.097656c-.703125 13.425782-4.027344 26.574219-9.753906 38.707032 19.089844 4.773437 39.0625 7.320312 59.628906 7.320312 27.679688 0 54.289062-4.597656 79.105469-13.058594-4.203125-10.480468-6.671875-21.605468-7.28125-32.933594zm0 0" fill="#86fdfb"/><path d="m214.960938 440.042969h82.101562c7.914062 0 15.082031 3.339843 20.136719 8.707031-.15625-1.574219-.289063-3.15625-.371094-4.742188l-2.207031-41.132812h-117.347656l-2.148438 41.09375c-.085938 1.625-.210938 3.242188-.371094 4.855469 5.058594-5.410157 12.253906-8.78125 20.207032-8.78125zm0 0" fill="#11dfef"/><path d="m256 347.441406 256 1.636719v-299.480469c0-10.609375-8.679688-19.289062-19.289062-19.289062-9.65625 0-229.011719 0-365.816407 0-75.640625 41.703125-126.894531 122.207031-126.894531 214.691406 0 37.160156 8.289062 72.378906 23.09375 103.929688zm0 0" fill="#2b3894"/><path d="m28.597656 130.0625c-.742187 1.394531-1.480468 2.796875-2.195312 4.207031v50.539063h14.863281v134.902344h442.828125c.832031 0 1.503906-.675782 1.503906-1.507813v-188.140625zm0 0" fill="#e6f7fe"/><path d="m26.402344 134.269531v74.257813c0 .832031.671875 1.503906 1.503906 1.503906h456.1875c.832031 0 1.503906-.671875 1.503906-1.503906v-78.464844h-457c-.742187 1.398438-1.480468 2.796875-2.195312 4.207031zm0 0" fill="#fecd0a"/><path d="m88.988281 130.0625h-60.390625c-.742187 1.398438-1.480468 2.796875-2.195312 4.207031v74.257813c0 .832031.671875 1.503906 1.503906 1.503906h61.085938v-79.96875zm0 0" fill="#fca60d"/><path d="m59.316406 404.828125h433.394532c10.609374 0 19.289062-8.675781 19.289062-19.285156v-39.386719c-20.679688 0-390.5 0-490.203125 0 9.703125 21.378906 22.386719 41.109375 37.519531 58.671875zm0 0" fill="#e6f7fe"/><path d="m269.199219 375.492188c0 7.292968-5.910157 13.203124-13.199219 13.203124s-13.199219-5.910156-13.199219-13.203124c0-7.289063 5.910157-13.199219 13.199219-13.199219s13.199219 5.910156 13.199219 13.199219zm0 0" fill="#d5f1fe"/><path d="m43.800781 105.191406c-.230469.335938-.464843.667969-.695312 1.003906-.703125 1.019532-1.398438 2.042969-2.085938 3.070313-.121093.183594-.238281.363281-.359375.546875-2.230468 3.367188-4.382812 6.792969-6.449218 10.273438-.191407.320312-.378907.640624-.566407.960937-.648437 1.097656-1.289062 2.203125-1.917969 3.3125-.054687.097656-.109374.199219-.164062.296875-1.40625 2.480469-2.765625 4.992188-4.085938 7.527344 0 .003906-.003906.007812-.003906.007812l458.125.003906v-30.0625h-439.636718c-.730469 1.011719-1.445313 2.035157-2.160157 3.058594zm0 0" fill="#d5f1fe"/><path d="m483.265625 56.710938h-395.015625c-16.140625 13.453124-30.53125 28.941406-42.765625 46.074218h440.113281v-43.738281c0-1.265625-1.066406-2.335937-2.332031-2.335937zm0 0" fill="#615df9"/><path d="m88.988281 56.710938h-.738281c-16.144531 13.453124-30.53125 28.941406-42.765625 46.074218h43.503906zm0 0" fill="#3342ae"/><path d="m75.109375 87.746094c-4.40625 0-8.003906-3.546875-8.003906-8.003906 0-5.003907 4.582031-8.816407 9.558593-7.839844 3.917969.816406 6.445313 4.1875 6.445313 7.839844 0 4.363281-3.546875 8.003906-8 8.003906zm0 0" fill="#fecd0a"/><path d="m96.992188 87.746094c-4.375 0-8.003907-3.527344-8.003907-8.003906 0-4.980469 4.574219-8.820313 9.574219-7.839844 3.84375.820312 6.433594 4.082031 6.433594 7.839844 0 4.460937-3.628906 8.003906-8.003906 8.003906zm0 0" fill="#39df74"/><path d="m345.992188 87.75h-222.507813c-4.421875 0-8.003906-3.582031-8.003906-8.003906 0-4.417969 3.582031-8 8.003906-8h222.507813c4.421874 0 8.003906 3.582031 8.003906 8 0 4.421875-3.582032 8.003906-8.003906 8.003906zm0 0" fill="#aeaeff"/><path d="m305 79.746094c0-4.417969 3.582031-8 8.003906-8h-189.519531c-4.421875 0-8.003906 3.582031-8.003906 8 0 4.421875 3.582031 8.003906 8.003906 8.003906h189.515625c-4.417969 0-8-3.582031-8-8.003906zm0 0" fill="#8181fc"/><path d="m454.058594 87.75h-75.523438c-4.417968 0-8-3.582031-8-8.003906 0-4.417969 3.582032-8 8-8h75.523438c4.421875 0 8.003906 3.582031 8.003906 8 0 4.421875-3.585938 8.003906-8.003906 8.003906zm0 0" fill="#aeaeff"/><path d="m93.746094 102.132812h-47.785156c-6.855469 9.53125-13.039063 19.574219-18.488282 30.0625h96.011719v-.328124c0-16.421876-13.3125-29.734376-29.738281-29.734376zm0 0" fill="#11dfef"/><path d="m88.988281 102.132812h-43.027343c-6.855469 9.53125-13.039063 19.574219-18.488282 30.0625h61.515625zm0 0" fill="#0ac6e5"/><path d="m430.085938 168.269531h17.046874c4.417969 0 8.003907-3.582031 8.003907-8.003906 0-4.417969-3.585938-8-8.003907-8h-17.046874c-4.421876 0-8.003907 3.582031-8.003907 8 0 4.421875 3.582031 8.003906 8.003907 8.003906zm0 0" fill="#fce395"/><path d="m412.316406 210.03125c0 13.929688-11.292968 25.222656-25.222656 25.222656s-25.222656-11.292968-25.222656-25.222656 11.292968-25.222656 25.222656-25.222656 25.222656 11.292968 25.222656 25.222656zm0 0" fill="#fca60d"/><path d="m359.390625 270.097656h55.40625c4.421875 0 8.003906-3.582031 8.003906-8.003906 0-4.417969-3.582031-8.003906-8.003906-8.003906h-55.40625c-4.417969 0-8.003906 3.582031-8.003906 8.003906s3.585937 8.003906 8.003906 8.003906zm0 0" fill="#11dfef"/><path d="m359.390625 298.113281h55.40625c4.421875 0 8.003906-3.582031 8.003906-8.003906 0-4.417969-3.582031-8-8.003906-8h-55.40625c-4.417969 0-8.003906 3.582031-8.003906 8 0 4.421875 3.585937 8.003906 8.003906 8.003906zm0 0" fill="#11dfef"/><path d="m307.625 210.03125c0 13.929688-11.292969 25.222656-25.222656 25.222656-13.929688 0-25.222656-11.292968-25.222656-25.222656s11.292968-25.222656 25.222656-25.222656c13.929687 0 25.222656 11.292968 25.222656 25.222656zm0 0" fill="#fca60d"/><path d="m385.152344 184.890625c-13.023438.992187-23.28125 11.863281-23.28125 25.140625 0 13.929688 11.292968 25.222656 25.222656 25.222656 8.890625 0 16.699219-4.601562 21.191406-11.546875-20.964844 1.601563-34.332031-21.503906-23.132812-38.816406zm0 0" fill="#f98a10"/><path d="m280.460938 184.890625c-13.023438.992187-23.28125 11.863281-23.28125 25.140625 0 13.929688 11.292968 25.222656 25.222656 25.222656 8.886718 0 16.699218-4.601562 21.191406-11.546875-21.007812 1.605469-34.304688-21.546875-23.132812-38.816406zm0 0" fill="#f98a10"/><path d="m254.699219 270.097656h55.40625c4.417969 0 8.003906-3.582031 8.003906-8.003906 0-4.417969-3.585937-8.003906-8.003906-8.003906h-55.40625c-4.421875 0-8.003907 3.582031-8.003907 8.003906s3.582032 8.003906 8.003907 8.003906zm0 0" fill="#11dfef"/><path d="m254.699219 298.113281h55.40625c4.417969 0 8.003906-3.582031 8.003906-8.003906 0-4.417969-3.585937-8-8.003906-8h-55.40625c-4.421875 0-8.003907 3.582031-8.003907 8 0 4.421875 3.582032 8.003906 8.003907 8.003906zm0 0" fill="#11dfef"/><path d="m197.972656 158.476562h-145.894531c-14.160156 0-25.675781 11.519532-25.675781 25.675782v171.578125c4.457031 8.78125 9.433594 17.25 14.875 25.382812l167.476562 106.199219c4.917969.726562 9.882813 1.316406 14.894532 1.75v-304.910156c0-14.15625-11.519532-25.675782-25.675782-25.675782zm0 0" fill="#3d4ec6"/><path d="m88.988281 188.535156c-7.625-1.023437-13.511719-7.542968-13.511719-15.449218 0-6.699219 4.226563-12.394532 10.152344-14.609376h-33.550781c-14.160156 0-25.675781 11.515626-25.675781 25.675782v171.578125c4.457031 8.78125 9.433594 17.25 14.875 25.382812l47.710937 30.253907zm0 0" fill="#3342ae"/><path d="m41.265625 291.066406v90.039063c37.582031 56.148437 97.753906 95.886719 167.519531 106.222656 0-21.441406 0-117.835937 0-196.261719zm0 0" fill="#e6f7fe"/><path d="m41.265625 291.066406v90.039063c10.488281 15.667969 22.738281 30.054687 36.460937 42.882812v-132.921875zm0 0" fill="#d5f1fe"/><path d="m52.078125 173.339844h21.683594c2.042969 0 3.699219 1.65625 3.699219 3.699218 0 4.90625 4.015624 8.921876 8.917968 8.921876h77.289063c4.90625 0 8.917969-4.015626 8.917969-8.921876 0-2.042968 1.65625-3.699218 3.703124-3.699218h21.683594c5.96875 0 10.808594 4.839844 10.808594 10.8125v107.914062h-50.097656c0-18.558594-15.101563-33.660156-33.660156-33.660156-18.558594 0-33.65625 15.101562-33.65625 33.660156h-50.101563v-107.914062c0-5.972656 4.839844-10.8125 10.8125-10.8125zm0 0" fill="#fecd0a"/><path d="m77.726562 179.15625c-.164062-.679688-.265624-1.386719-.265624-2.113281 0-2.046875-1.65625-3.703125-3.699219-3.703125h-21.683594c-5.972656 0-10.8125 4.839844-10.8125 10.8125v107.914062h36.460937zm0 0" fill="#fca60d"/><path d="m164.238281 220.007812h17.046875c4.417969 0 8.003906-3.582031 8.003906-8 0-4.421874-3.585937-8.003906-8.003906-8.003906h-17.046875c-4.417969 0-8.003906 3.582032-8.003906 8.003906 0 4.417969 3.585937 8 8.003906 8zm0 0" fill="#fce395"/><path d="m160.28125 292.066406c0 19.472656-15.785156 35.257813-35.257812 35.257813-19.472657 0-35.257813-15.785157-35.257813-35.257813s15.785156-35.257812 35.257813-35.257812c19.472656 0 35.257812 15.785156 35.257812 35.257812zm0 0" fill="#fca60d"/><path d="m150.113281 311.390625c-19.472656 0-35.257812-15.785156-35.257812-35.257813 0-7.003906 2.050781-13.527343 5.578125-19.019531-17.300782 2.253907-30.667969 17.039063-30.667969 34.953125 0 19.472656 15.789063 35.257813 35.257813 35.257813 12.46875 0 23.414062-6.476563 29.683593-16.238281-1.503906.195312-3.035156.304687-4.59375.304687zm0 0" fill="#f98a10"/><path d="m104.964844 370.554688h40.117187c5.894531 0 10.671875-4.777344 10.671875-10.667969 0-5.894531-4.777344-10.671875-10.671875-10.671875h-40.117187c-5.894532 0-10.667969 4.777344-10.667969 10.671875 0 5.890625 4.773437 10.667969 10.667969 10.667969zm0 0" fill="#fecd0a"/><path d="m123.976562 359.886719c0-5.894531 4.777344-10.671875 10.671876-10.671875h-29.683594c-5.894532 0-10.667969 4.777344-10.667969 10.671875 0 5.890625 4.773437 10.667969 10.667969 10.667969h29.683594c-5.894532 0-10.671876-4.777344-10.671876-10.667969zm0 0" fill="#fca60d"/><g fill="#11dfef"><path d="m81.519531 404.886719h87.011719c4.421875 0 8.003906-3.582031 8.003906-8.003907 0-4.421874-3.582031-8.003906-8.003906-8.003906h-87.011719c-4.421875 0-8.003906 3.582032-8.003906 8.003906 0 4.421876 3.582031 8.003907 8.003906 8.003907zm0 0"/><path d="m168.53125 417.820312h-87.011719c-2.75 0-5.171875 1.386719-6.613281 3.496094 4.5 4.339844 9.160156 8.519532 13.980469 12.507813h79.644531c4.417969 0 8.003906-3.582031 8.003906-8 0-4.421875-3.585937-8.003907-8.003906-8.003907zm0 0"/><path d="m168.53125 446.765625h-62.523438c8.507813 5.871094 17.398438 11.226563 26.640626 16.003906h35.882812c4.417969 0 8-3.582031 8-8.003906.003906-4.417969-3.582031-8-8-8zm0 0"/></g></svg>